<?xml version="1.0" encoding="utf-8"?>
<!-- Generator: Adobe Illustrator 25.0.1, SVG Export Plug-In . SVG Version: 6.00 Build 0)  -->
<svg version="1.1" id="Layer_1" xmlns="http://www.w3.org/2000/svg" xmlns:xlink="http://www.w3.org/1999/xlink" x="0px" y="0px"
	 viewBox="0 0 150.8 150.8" style="enable-background:new 0 0 150.8 150.8;" xml:space="preserve">
<style type="text/css">
	.st0{fill:#03CE94;}
	.st1{fill:#FFFFFF;}
</style>
<g>
	<g id="Group_224" transform="translate(-698.493 -4980.523)">
		<g id="_7._Placeholders_1._Vector_Graphics_Logo_Icons_Illustrations_" transform="translate(698.493 4980.523)">
			<g id="Group_107">
				<circle id="_Background" class="st0" cx="75.4" cy="75.4" r="75.4"/>
			</g>
		</g>
	</g>
	<g id="Group_146" transform="translate(745.621 5017.604)">
		<g id="Group_145">
			<g id="Group_141" transform="translate(8.524)">
				<g id="Group_140">
					<g id="Group_139">
						<path id="Path_71" class="st1" d="M-678.6-4972.3c-9.6-0.1-17.4,7.6-17.5,17.2s7.6,17.4,17.2,17.5c0.1,0,0.2,0,0.3,0
							c9.6-0.2,17.2-8.1,17-17.6C-661.7-4964.6-669.3-4972.2-678.6-4972.3z"/>
					</g>
				</g>
			</g>
			<g id="Group_144" transform="translate(0 34.663)">
				<g id="Group_143">
					<g id="Group_142">
						<path id="Path_72" class="st1" d="M-676.7-4946.8h28c2.4,0,4.3-1.9,4.3-4.3c0,0,0,0,0,0v-4.3c0-6.3-2.4-12.4-6.7-17
							c-4.8,5.4-11.7,8.5-18.9,8.5c-7.3,0-14.3-3.1-19.2-8.5c-4.3,4.7-6.6,10.7-6.7,17v4.3c0,2.4,1.9,4.3,4.3,4.3c0,0,0,0,0,0
							H-676.7"/>
					</g>
				</g>
			</g>
		</g>
	</g>
</g>
</svg>
