<?xml version="1.0" encoding="utf-8"?>
<!-- Generator: Adobe Illustrator 25.0.1, SVG Export Plug-In . SVG Version: 6.00 Build 0)  -->
<svg version="1.1" id="Layer_1" xmlns="http://www.w3.org/2000/svg" xmlns:xlink="http://www.w3.org/1999/xlink" x="0px" y="0px"
	 viewBox="0 0 150.8 150.8" style="enable-background:new 0 0 150.8 150.8;" xml:space="preserve">
<style type="text/css">
	.st0{fill:#03CE94;}
	.st1{fill:#FFFFFF;}
</style>
<g>
	<g id="_7._Placeholders_1._Vector_Graphics_Logo_Icons_Illustrations_2">
		<circle id="_Background-3" class="st0" cx="75.4" cy="75.4" r="75.4"/>
	</g>
	<g id="Group_218" transform="translate(48.517 43.695)">
		<g id="Group_217">
			<g id="Group_191">
				<g id="Group_190">
					<path id="Path_92" class="st1" d="M40.1,0H3.7C1.7,0,0,1.7,0,3.7v12.6c0,0.7,0.6,1.2,1.3,1.2c0.7,0,1.2-0.5,1.2-1.2V3.7
						C2.5,3,3,2.5,3.7,2.5h36.4c0.7,0,1.2,0.6,1.2,1.2v46.1c0,0.7-0.6,1.2-1.2,1.2H3.7c-0.7,0-1.2-0.6-1.2-1.2v-23
						c0-0.7-0.5-1.3-1.2-1.3C0.6,25.5,0,26,0,26.7c0,0,0,0,0,0.1v23c0,2.1,1.7,3.7,3.7,3.7h36.4c2.1,0,3.7-1.7,3.7-3.7V3.7
						C43.8,1.7,42.2,0,40.1,0z"/>
				</g>
			</g>
			<g id="Group_193" transform="translate(0 20.651)">
				<g id="Group_192">
					<path id="Path_93" class="st1" d="M2.1,0.4c-0.5-0.5-1.3-0.5-1.8,0c-0.5,0.5-0.5,1.3,0,1.8c0.5,0.5,1.3,0.5,1.8,0
						c0.2-0.2,0.4-0.5,0.4-0.9C2.5,0.9,2.3,0.6,2.1,0.4z"/>
				</g>
			</g>
			<g id="Group_195" transform="translate(4.96 55.973)">
				<g id="Group_194">
					<path id="Path_94" class="st1" d="M2.1,0.4c-0.5-0.5-1.3-0.5-1.7,0c-0.5,0.5-0.5,1.3,0,1.7s1.3,0.5,1.7,0
						c0.2-0.2,0.4-0.5,0.4-0.9C2.5,0.9,2.3,0.6,2.1,0.4z"/>
				</g>
			</g>
			<g id="Group_197" transform="translate(9.914 4.96)">
				<g id="Group_196">
					<path id="Path_95" class="st1" d="M37.6,0c-0.7,0-1.2,0.6-1.2,1.2v48.5c0,0.7-0.6,1.2-1.2,1.2H1.2C0.6,51,0,51.6,0,52.3
						c0,0.7,0.5,1.2,1.2,1.2h33.9c2.1,0,3.7-1.7,3.7-3.7V1.2C38.9,0.6,38.3,0,37.6,0z"/>
				</g>
			</g>
			<g id="Group_199" transform="translate(9.921 9.906)">
				<g id="Group_198">
					<path id="Path_96" class="st1" d="M42.6,0c-0.7,0-1.2,0.5-1.2,1.2c0,0,0,0,0,0v48.5c0,0.7-0.6,1.2-1.2,1.2H1.2
						C0.6,51,0,51.6,0,52.3c0,0.7,0.5,1.2,1.2,1.2h38.9c2.1,0,3.7-1.7,3.7-3.7V1.2C43.8,0.6,43.3,0,42.6,0z"/>
				</g>
			</g>
			<path id="Rectangle_54" class="st1" d="M3,0h37.8c1.7,0,3,1.3,3,3v47.5c0,1.7-1.3,3-3,3H3c-1.7,0-3-1.3-3-3V3C0,1.3,1.3,0,3,0z"
				/>
			<g id="Group_216" transform="translate(6.934 9.163)">
				<g id="Group_201">
					<g id="Group_200">
						<path id="Path_97" class="st0" d="M13.1,0H1.2C0.6,0,0,0.6,0,1.2c0,0,0,0,0,0v11.9c0,0.7,0.6,1.2,1.2,1.2c0,0,0,0,0,0h11.9
							c0.7,0,1.2-0.6,1.2-1.2V1.2C14.4,0.6,13.8,0,13.1,0z M11.9,11.9H2.5V2.5h9.4V11.9z"/>
					</g>
				</g>
				<g id="Group_203" transform="translate(0.454 19.621)">
					<g id="Group_202">
						<path id="Path_98" class="st0" d="M8.7,0.4c-0.5-0.5-1.3-0.5-1.7,0c0,0,0,0,0,0L3.6,3.7L2.1,2.1c-0.5-0.5-1.3-0.5-1.8,0
							c-0.5,0.5-0.5,1.2,0,1.7l2.4,2.4c0.5,0.5,1.3,0.5,1.8,0l4.2-4.2C9.2,1.6,9.2,0.8,8.7,0.4z"/>
					</g>
				</g>
				<g id="Group_205" transform="translate(13.743 21.668)">
					<g id="Group_204">
						<path id="Path_99" class="st0" d="M15.7,0H1.2C0.6,0,0,0.6,0,1.3c0,0.7,0.5,1.2,1.2,1.2h14.4c0.7,0,1.2-0.6,1.2-1.3
							C16.9,0.5,16.3,0,15.7,0z"/>
					</g>
				</g>
				<g id="Group_207" transform="translate(18.821)">
					<g id="Group_206">
						<path id="Path_100" class="st0" d="M9.9,0H1.2C0.6,0,0,0.6,0,1.3c0,0.7,0.5,1.2,1.2,1.2h8.7c0.7,0,1.3-0.5,1.3-1.2
							C11.2,0.6,10.7,0,9.9,0C10,0,9.9,0,9.9,0z"/>
					</g>
				</g>
				<g id="Group_209" transform="translate(18.821 5.942)">
					<g id="Group_208">
						<path id="Path_101" class="st0" d="M9.9,0H1.2C0.6,0,0,0.6,0,1.3c0,0.7,0.5,1.2,1.2,1.2h8.7c0.7,0,1.3-0.5,1.3-1.2
							C11.2,0.6,10.7,0,9.9,0C10,0,9.9,0,9.9,0z"/>
					</g>
				</g>
				<g id="Group_211" transform="translate(18.821 11.886)">
					<g id="Group_210">
						<path id="Path_102" class="st0" d="M9.9,0H1.2C0.6,0,0,0.6,0,1.3c0,0.7,0.5,1.2,1.2,1.2h8.7c0.7,0,1.3-0.5,1.3-1.2
							C11.2,0.6,10.7,0,9.9,0C10,0,9.9,0,9.9,0z"/>
					</g>
				</g>
				<g id="Group_213" transform="translate(0.454 29.077)">
					<g id="Group_212">
						<path id="Path_103" class="st0" d="M8.7,0.4c-0.5-0.5-1.3-0.5-1.7,0c0,0,0,0,0,0L3.6,3.7L2.1,2.1c-0.5-0.5-1.3-0.5-1.8,0
							c-0.5,0.5-0.5,1.2,0,1.7l2.4,2.4c0.5,0.5,1.3,0.5,1.8,0l4.2-4.2C9.2,1.6,9.2,0.8,8.7,0.4z"/>
					</g>
				</g>
				<g id="Group_215" transform="translate(13.743 31.077)">
					<g id="Group_214">
						<path id="Path_104" class="st0" d="M15.7,0H1.2C0.6,0,0,0.6,0,1.3c0,0.7,0.5,1.2,1.2,1.2h14.4c0.7,0,1.2-0.6,1.2-1.3
							C16.9,0.5,16.3,0,15.7,0z"/>
					</g>
				</g>
			</g>
		</g>
	</g>
</g>
</svg>
