<?xml version="1.0" encoding="utf-8"?>
<!-- Generator: Adobe Illustrator 25.0.1, SVG Export Plug-In . SVG Version: 6.00 Build 0)  -->
<svg version="1.1" id="Layer_1" xmlns="http://www.w3.org/2000/svg" xmlns:xlink="http://www.w3.org/1999/xlink" x="0px" y="0px"
	 viewBox="0 0 150.8 150.8" style="enable-background:new 0 0 150.8 150.8;" xml:space="preserve">
<style type="text/css">
	.st0{fill:#03CE94;}
	.st1{fill:#FFFFFF;}
</style>
<g>
	<g id="_7._Placeholders_1._Vector_Graphics_Logo_Icons_Illustrations_2">
		<circle id="_Background-3" class="st0" cx="75.4" cy="75.4" r="75.4"/>
	</g>
	<g id="Group_158" transform="translate(55.236 45.329)">
		<g id="Group_155">
			<g id="Group_148" transform="translate(35.166 0.032)">
				<g id="Group_147">
					<path id="Path_73" class="st1" d="M10.6,10.3c0-1.4-0.5-2.7-1.5-3.7l-5-5C3.1,0.6,1.7,0,0.3,0H0l0,10.6l10.6,0L10.6,10.3
						L10.6,10.3z"/>
				</g>
			</g>
			<g id="Group_150">
				<g id="Group_149">
					<path id="Path_74" class="st1" d="M32.2,36.4c0.3-1,0.9-2,1.7-2.7l11.9-11.9l0-7.6l-12.4,0c-0.9,0-1.7-0.8-1.7-1.7c0,0,0,0,0,0
						l0-12.3L5.3,0C2.4,0,0.1,2.4,0.1,5.3L0,54.8c0,2.9,2.4,5.3,5.3,5.3l35.2,0c2.9,0,5.3-2.4,5.3-5.3l0-13.1l-1.9,1.9
						c-0.8,0.8-1.7,1.3-2.7,1.7l-5.6,1.9l-0.9,0c-2.4,0-4.4-2-4.4-4.4c0-0.5,0.1-0.9,0.2-1.4L32.2,36.4z M8.8,31.7l17.5,0
						c1,0,1.8,0.8,1.8,1.8c0,1-0.8,1.8-1.8,1.8l-17.5,0c-1,0-1.8-0.8-1.8-1.8C7.1,32.5,7.9,31.7,8.8,31.7L8.8,31.7z M7.1,26.4
						c0-1,0.8-1.8,1.8-1.8c0,0,0,0,0,0l17.5,0c1,0,1.8,0.8,1.8,1.8c0,1-0.8,1.8-1.8,1.8c0,0,0,0,0,0l-17.5,0
						C7.9,28.2,7.1,27.4,7.1,26.4C7.1,26.4,7.1,26.4,7.1,26.4L7.1,26.4z M7.1,40.5c0-1,0.8-1.8,1.8-1.8c0,0,0,0,0,0l17.5,0
						c1,0,1.8,0.8,1.8,1.8c0,1-0.8,1.8-1.8,1.8l-17.5,0C7.8,42.3,7.1,41.5,7.1,40.5C7.1,40.5,7.1,40.5,7.1,40.5L7.1,40.5z
						 M33.4,49.3c1,0,1.8,0.8,1.8,1.8c0,1-0.8,1.8-1.8,1.8l-10.6,0c-1,0-1.8-0.8-1.8-1.8c0-1,0.8-1.8,1.8-1.8c0,0,0,0,0,0L33.4,49.3
						z M8.8,21.1c-1,0-1.8-0.8-1.8-1.8c0-1,0.8-1.8,1.8-1.8l24.6,0c1,0,1.8,0.8,1.8,1.8c0,1-0.8,1.8-1.8,1.8L8.8,21.1z"/>
				</g>
			</g>
			<g id="Group_152" transform="translate(33.774 37.918)">
				<g id="Group_151">
					<path id="Path_75" class="st1" d="M1.6,0L0,4.6c-0.2,0.5,0.1,1,0.6,1.1c0.2,0.1,0.4,0.1,0.6,0l4.6-1.5L1.6,0z"/>
				</g>
			</g>
			<g id="Group_154" transform="translate(37.439 23.44)">
				<g id="Group_153">
					<path id="Path_76" class="st1" d="M11.6,0L0,11.6l5,5C7.6,14,12.7,8.9,16.6,5L11.6,0z"/>
				</g>
			</g>
		</g>
		<g id="Group_157" transform="translate(52.031 16.883)">
			<g id="Group_156">
				<path id="Path_77" class="st1" d="M7.6,1C6.1-0.3,4-0.3,2.6,1L0,3.5l5,5L7.6,6C8.9,4.6,8.9,2.4,7.6,1z"/>
			</g>
		</g>
	</g>
</g>
</svg>
