<?xml version="1.0" encoding="utf-8"?>
<!-- Generator: Adobe Illustrator 25.0.1, SVG Export Plug-In . SVG Version: 6.00 Build 0)  -->
<svg version="1.1" id="Layer_1" xmlns="http://www.w3.org/2000/svg" xmlns:xlink="http://www.w3.org/1999/xlink" x="0px" y="0px"
	 viewBox="0 0 150.8 150.8" style="enable-background:new 0 0 150.8 150.8;" xml:space="preserve">
<style type="text/css">
	.st0{fill:#03CE94;}
	.st1{fill:#FFFFFF;}
</style>
<g>
	<g id="Group_160">
		<g id="_7._Placeholders_1._Vector_Graphics_Logo_Icons_Illustrations_2">
			<circle id="_Background-3" class="st0" cx="75.4" cy="75.4" r="75.4"/>
		</g>
	</g>
	<g id="Group_223" transform="translate(44.189 59.125)">
		<g id="Group_114">
			<g id="Group_113">
				<g id="Group_112">
					<path id="Path_54" class="st1" d="M61.8,8.2L28,8.8c-0.8-1.7-1.8-3.3-3.2-4.7C19-1.5,9.7-1.4,4.1,4.4
						c-5.6,5.8-5.5,15.1,0.3,20.7c5.8,5.6,15.1,5.5,20.7-0.3c1.3-1.4,2.4-3,3.1-4.8l11.6-0.2l0.1,4.7c0,0.6,0.5,1.1,1.1,1.1l6.4-0.1
						c0.6,0,1.1-0.5,1.1-1.1l-0.1-5.2l2.5,0l0.1,5.2c0,0.6,0.5,1.1,1.1,1.1l6.4-0.1c0.6,0,1.1-0.5,1.1-1.1c0,0,0,0,0,0l-0.1-4.7
						l2.9,0c3.1-0.1,5.6-2.6,5.5-5.7c0-0.3,0-0.5-0.1-0.8C67.2,10.1,64.7,8.1,61.8,8.2z M20.2,20.1c-3,3.1-8,3.2-11.1,0.2
						c-3.1-3-3.2-8-0.2-11.1c3-3.1,8-3.2,11.1-0.2C23.2,12,23.3,16.9,20.2,20.1C20.2,20.1,20.2,20.1,20.2,20.1z"/>
				</g>
			</g>
		</g>
	</g>
</g>
</svg>
