<?xml version="1.0" encoding="utf-8"?>
<!-- Generator: Adobe Illustrator 25.0.1, SVG Export Plug-In . SVG Version: 6.00 Build 0)  -->
<svg version="1.1" id="Layer_1" xmlns="http://www.w3.org/2000/svg" xmlns:xlink="http://www.w3.org/1999/xlink" x="0px" y="0px"
	 viewBox="0 0 150.8 150.8" style="enable-background:new 0 0 150.8 150.8;" xml:space="preserve">
<style type="text/css">
	.st0{fill:#03CE94;}
	.st1{fill:#FFFFFF;}
	.st2{enable-background:new    ;}
</style>
<g>
	<g id="_7._Placeholders_1._Vector_Graphics_Logo_Icons_Illustrations_2">
		<circle id="_Background-3" class="st0" cx="75.4" cy="75.4" r="75.4"/>
	</g>
	<g id="Group_120" transform="translate(42.036 41.799)">
		<g id="Group_119">
			<g id="Group_118">
				<path id="Path_55" class="st1" d="M70,19.1c1.3,0,2.4-1.1,2.3-2.5c0-1.3-1.1-2.3-2.4-2.3l-4.8,0l-16.8,0.2l0,2.4l6.9-0.1
					c1.1,0,2.1,0.4,2.8,1.2c0.8-0.8,1.8-1.2,2.9-1.2l2.5,0c1.6,0,3.1,0.9,3.8,2.4L70,19.1L70,19.1z"/>
				<path id="Path_56" class="st1" d="M59.2,22.8l0,2.4l-2.4,0l0-2.4l0-1.8v-0.2c0-0.9-0.7-1.6-1.6-1.6l-7.7,0.1
					c-0.9,0-1.6,0.7-1.6,1.6c0,0.3,0.1,0.6,0.3,0.9l6.5,9.5l8.2-0.1l4.1-9.6c0.4-0.9,0-1.9-0.9-2.3c-0.2-0.1-0.5-0.1-0.7-0.1l-2.5,0
					c-1,0-1.8,0.8-1.8,1.8L59.2,22.8z"/>
				<path id="Path_57" class="st1" d="M65.1,11.9c1.3,0,2.4-1.1,2.4-2.4c0-1.3-1.1-2.4-2.4-2.4c0,0-0.1,0-0.1,0L51.9,7.2l-7.9,0.1
					l-1.8,1.9C41,10.3,39.5,11,37.9,11l-2.8,0l0-2.4l2.8,0c1,0,1.9-0.4,2.5-1.1l2.5-2.6l0.5,0l8.4-0.1c2,0,3.6-1.7,3.6-3.6
					c0-0.7-0.6-1.2-1.2-1.2L32.5,0.2c-2,0-3.9,0.8-5.5,2.1l-5.3,4.6L22,29.7l5.6,3.1c1.3,0.7,2.7,1.1,4.2,1.1l17.9-0.2l1-1.3
					l-2.2-3.3c-0.1,1.1-0.7,2.2-1.5,3l-1.7-1.7c0.5-0.6,0.8-1.3,0.8-2.1l0-2.7l-1.8-2.6c-1.2-1.8-0.8-4.3,1-5.5
					c0.2-0.1,0.4-0.3,0.6-0.4l0-4.6c0-0.8-0.3-1.5-0.9-2l1.7-1.7c0.9,0.9,1.4,2,1.5,3.2L65.1,11.9L65.1,11.9z"/>
				<path id="Path_58" class="st1" d="M41.5,54.3c0.1,8.6,7.2,15.6,15.8,15.5c8.6-0.1,15.6-7.2,15.5-15.8v-0.3
					c0-3.4-1.2-6.8-3.3-9.5l-8.3-10.6l-8.4,0.1l-8.1,10.7c-2.1,2.8-3.2,6.1-3.1,9.6L41.5,54.3L41.5,54.3z"/>
				<path id="Path_59" class="st1" d="M19.6,30.4L19.4,6.4c0-0.7-0.6-1.2-1.2-1.2L2.5,5.3l0.3,26.5l15.6-0.2
					C19.1,31.6,19.6,31.1,19.6,30.4C19.6,30.4,19.6,30.4,19.6,30.4z"/>
				<g id="Group_117" transform="translate(0 35.787)">
					<path id="Path_60" class="st1" d="M8,34.5l-6,0.1c-0.7,0-1.2,0.5-1.2,1.2c0,0,0,0,0,0l0,0c0,0.7,0.5,1.2,1.2,1.2c0,0,0,0,0,0
						l55.4-0.5c-3,0-6-0.7-8.7-2.2c-0.2-0.1-0.4-0.2-0.6-0.2l-18.4,0.2c-0.7,0-1.2-0.5-1.2-1.2c0,0,0,0,0,0l-0.1-15
						c0-0.7,0.5-1.2,1.2-1.2c0.4,0,0.7,0.2,0.9,0.4l1,1.2c0.4,0.5,1.2,0.6,1.7,0.1c0,0,0,0,0,0l0,0c0.5-0.4,0.6-1.2,0.1-1.7
						c0,0,0,0,0,0l-5.3-6.2c-0.4-0.5-1.2-0.6-1.7-0.1c-0.1,0-0.1,0.1-0.2,0.2L20.9,17c-0.4,0.5-0.3,1.3,0.2,1.7c0,0,0,0,0,0l0,0
						c0.5,0.4,1.3,0.3,1.7-0.2c0,0,0,0,0,0l1-1.2c0.4-0.5,1.2-0.6,1.7-0.2c0.3,0.2,0.4,0.6,0.4,0.9l0.1,15c0,0.7-0.5,1.2-1.2,1.2
						l-12,0.1c-0.7,0-1.2-0.5-1.2-1.2c0,0,0,0,0,0L11.3,8.6c0-0.7,0.5-1.2,1.2-1.2c0.4,0,0.7,0.2,0.9,0.4l1,1.2
						c0.4,0.5,1.2,0.6,1.7,0.1c0,0,0,0,0,0l0,0c0.5-0.4,0.6-1.2,0.1-1.7c0,0,0,0,0,0L11,1.2C10.5,0.7,9.8,0.6,9.3,1
						c-0.1,0-0.1,0.1-0.2,0.2L3.9,7.5C3.5,8,3.6,8.8,4.1,9.2c0,0,0,0,0,0l0,0c0.5,0.4,1.3,0.3,1.7-0.2c0,0,0,0,0,0l1-1.2
						c0.4-0.5,1.2-0.6,1.7-0.2c0.3,0.2,0.4,0.6,0.4,0.9l0.2,24.6C9.2,33.9,8.6,34.5,8,34.5C8,34.5,8,34.5,8,34.5z"/>
					<path id="Path_61" class="st1" d="M0,35.8c0-1.1,0.9-2,1.9-2l6-0.1c0.2,0,0.4-0.2,0.4-0.5L8.2,8.6c0-0.2-0.2-0.4-0.5-0.4
						c-0.1,0-0.3,0.1-0.3,0.2l-1,1.2c-0.7,0.8-1.9,1-2.8,0.3c-0.8-0.7-1-1.9-0.3-2.8l5.2-6.3c0.7-0.8,1.9-1,2.7-0.3
						c0.1,0.1,0.2,0.2,0.3,0.2l5.3,6.2c0.7,0.8,0.6,2.1-0.2,2.8c-0.8,0.7-2.1,0.6-2.8-0.2l-1-1.2c-0.2-0.2-0.4-0.2-0.6-0.1
						c-0.1,0.1-0.2,0.2-0.2,0.4l0.2,24.6c0,0.2,0.2,0.4,0.5,0.4c0,0,0,0,0,0l12-0.1c0.2,0,0.4-0.2,0.4-0.5c0,0,0,0,0,0l-0.1-15
						c0-0.2-0.2-0.4-0.5-0.4c-0.1,0-0.3,0.1-0.3,0.2l-1,1.2c-0.7,0.8-1.9,1-2.8,0.3c-0.8-0.7-1-1.9-0.3-2.8l5.2-6.3
						c0.7-0.8,1.9-1,2.7-0.3c0.1,0.1,0.2,0.2,0.3,0.2l5.3,6.2c0.7,0.8,0.6,2.1-0.3,2.8c-0.8,0.7-2,0.6-2.7-0.2l-1-1.2
						c-0.2-0.2-0.4-0.2-0.6-0.1C29.1,17.8,29,17.9,29,18l0.1,15c0,0.2,0.2,0.4,0.5,0.4c0,0,0,0,0,0L48,33.3c0.3,0,0.7,0.1,1,0.2
						c2.6,1.4,5.4,2.1,8.3,2.1c0.4,0,0.7,0.4,0.7,0.8c0,0.4-0.3,0.7-0.7,0.7L2,37.7C0.9,37.7,0,36.8,0,35.8C0,35.8,0,35.8,0,35.8z"
						/>
				</g>
			</g>
		</g>
		<g class="st2">
			<path class="st0" d="M49.5,47.7c0.5-0.3,1.1-0.4,1.8-0.4c0.7,0,1.3,0.1,1.8,0.4c0.5,0.2,0.9,0.6,1.2,1.1c0.3,0.5,0.5,1,0.7,1.6
				c0.1,0.6,0.2,1.3,0.2,2c0,0.7-0.1,1.4-0.2,2c-0.1,0.6-0.3,1.1-0.6,1.6c-0.3,0.5-0.7,0.8-1.2,1.1c-0.5,0.3-1.1,0.4-1.8,0.4
				c-0.7,0-1.3-0.1-1.8-0.4c-0.5-0.2-0.9-0.6-1.2-1.1c-0.3-0.5-0.5-1-0.7-1.6c-0.1-0.6-0.2-1.3-0.2-2s0.1-1.4,0.2-2
				c0.1-0.6,0.3-1.1,0.6-1.6C48.6,48.3,49,47.9,49.5,47.7z M52,49.7c-0.2-0.1-0.4-0.2-0.7-0.2c-0.3,0-0.5,0.1-0.7,0.2
				c-0.2,0.1-0.4,0.2-0.5,0.4c-0.1,0.2-0.2,0.4-0.3,0.6c-0.1,0.3-0.1,0.5-0.1,0.8c0,0.2,0,0.5,0,0.9c0,0.3,0,0.6,0,0.9
				c0,0.2,0.1,0.5,0.1,0.8c0.1,0.3,0.2,0.5,0.3,0.6s0.3,0.3,0.5,0.4c0.2,0.1,0.4,0.2,0.7,0.2c0.3,0,0.5-0.1,0.7-0.2
				c0.2-0.1,0.4-0.2,0.5-0.4c0.1-0.2,0.2-0.4,0.3-0.6s0.1-0.5,0.1-0.8s0-0.5,0-0.9s0-0.6,0-0.9c0-0.2-0.1-0.5-0.1-0.8
				c-0.1-0.3-0.2-0.5-0.3-0.6C52.4,49.9,52.2,49.8,52,49.7z"/>
			<path class="st0" d="M57,51.4c-0.4-0.4-0.7-1-0.7-1.7c0-0.7,0.2-1.3,0.6-1.7s1-0.6,1.7-0.6c0.7,0,1.3,0.2,1.7,0.6
				c0.4,0.4,0.7,1,0.7,1.7c0,0.7-0.2,1.3-0.6,1.7c-0.4,0.4-1,0.6-1.7,0.6C58,52,57.4,51.8,57,51.4z M57.8,57.3l5.3-9.9l2.3,0
				l-5.3,9.9L57.8,57.3z M58.7,50.6c0.5,0,0.7-0.3,0.7-0.9c0-0.6-0.2-0.9-0.7-0.9c-0.5,0-0.7,0.3-0.7,0.9
				C58,50.3,58.2,50.6,58.7,50.6z M62.9,56.8c-0.4-0.4-0.7-1-0.7-1.7c0-0.7,0.2-1.3,0.6-1.7c0.4-0.4,1-0.6,1.7-0.6s1.3,0.2,1.7,0.6
				c0.4,0.4,0.7,1,0.7,1.7c0,0.7-0.2,1.3-0.6,1.7c-0.4,0.4-1,0.6-1.7,0.6S63.4,57.2,62.9,56.8z M64.6,56c0.5,0,0.7-0.3,0.7-0.9
				s-0.2-0.9-0.7-0.9c-0.5,0-0.7,0.3-0.7,0.9S64.2,56,64.6,56z"/>
		</g>
	</g>
</g>
</svg>
