<?xml version="1.0" encoding="utf-8"?>
<!-- Generator: Adobe Illustrator 25.0.1, SVG Export Plug-In . SVG Version: 6.00 Build 0)  -->
<svg version="1.1" id="Layer_1" xmlns="http://www.w3.org/2000/svg" xmlns:xlink="http://www.w3.org/1999/xlink" x="0px" y="0px"
	 viewBox="0 0 150.8 150.8" style="enable-background:new 0 0 150.8 150.8;" xml:space="preserve">
<style type="text/css">
	.st0{fill:#03CE94;}
	.st1{fill:#FFFFFF;}
</style>
<g>
	<g id="Group_116">
		<g id="_7._Placeholders_1._Vector_Graphics_Logo_Icons_Illustrations_3">
			<circle id="_Background-5" class="st0" cx="75.4" cy="75.4" r="75.4"/>
		</g>
	</g>
	<g id="Group_222" transform="translate(34.989 31.444)">
		<g id="Group_179">
			<g id="Group_165" transform="translate(60.202 23.305)">
				<g id="Group_164">
					<g id="Group_163">
						<path id="Path_78" class="st1" d="M0,0L0,0L0,0L0,0z"/>
						<path id="Path_79" class="st1" d="M0,0L0,0L0,0z"/>
						<path id="Path_80" class="st1" d="M0,0"/>
					</g>
				</g>
			</g>
			<g id="Group_178">
				<g id="Group_167" transform="translate(10.802)">
					<g id="Group_166">
						<path id="Path_81" class="st1" d="M44.5,18.6L25.1,0.8c-1.3-1-3.1-1-4.4,0L1.3,18.5c-1.5,1.2-1.8,3.4-0.6,5
							C2,25,4.2,25.2,5.7,24L22.9,8.2l17.2,15.9c1.5,1.1,3.7,0.9,4.9-0.6C46.2,22,46,19.8,44.5,18.6C44.5,18.6,44.5,18.6,44.5,18.6z
							"/>
					</g>
				</g>
				<g id="Group_169" transform="translate(42.507 0.006)">
					<g id="Group_168">
						<path id="Path_82" class="st1" d="M8.8,0h-7C0.8,0,0,0.8,0,1.8c0,0,0,0,0,0V2l10.6,9.7v-10C10.6,0.8,9.8,0,8.8,0
							C8.8,0,8.8,0,8.8,0z"/>
					</g>
				</g>
				<g id="Group_171" transform="translate(0 28.305)">
					<g id="Group_170">
						<path id="Path_83" class="st1" d="M5.5,0H1.8C0.8,0,0,0.8,0,1.8c0,0,0,0,0,0v28.3c0,1,0.8,1.8,1.8,1.8c0,0,0,0,0,0h3.8
							c2.9,0,5.3-2.4,5.3-5.3V5.3C10.8,2.4,8.4,0,5.5,0z"/>
					</g>
				</g>
				<g id="Group_173" transform="translate(14.325 31.137)">
					<g id="Group_172">
						<path id="Path_84" class="st1" d="M44.4,1.4c-1.4-1-3.4-0.9-4.6,0.5l-9.5,11.8c-0.7,0.7-1.6,1.1-2.6,1.1H12.3
							c-1,0-1.8-0.8-1.8-1.8c0-1,0.8-1.8,1.8-1.8h14.1c1.9,0,3.5-1.6,3.5-3.6c0-1.9-1.6-3.4-3.5-3.5h-9.2c-0.9,0-1.3-0.6-2-1.2
							c-1-0.9-2.2-1.6-3.5-2.1C7.8-0.7,3.4-0.2,0,2.2v23.2h26.4c3.3,0,6.5-1.6,8.5-4.2L45.1,6.3C46.3,4.8,45.9,2.5,44.4,1.4z"/>
					</g>
				</g>
				<g id="Group_175" transform="translate(17.849 12.955)">
					<g id="Group_174">
						<path id="Path_85" class="st1" d="M15.8,0L0,14.6v0.5c3.2-0.8,6.5-0.5,9.5,0.7c0.4,0.1,0.7,0.4,1.1,0.5v-2.8
							c0-1,0.8-1.8,1.8-1.8c0,0,0,0,0,0h7c1,0,1.8,0.8,1.8,1.8c0,0,0,0,0,0v5.3h1.8c2.7,0,5.2,1.6,6.4,4.1l2.4-3v-5.3L15.8,0z"/>
					</g>
				</g>
				<g id="Group_177" transform="translate(31.939 28.306)">
					<g id="Group_176">
						<path id="Path_86" class="st1" d="M0,0v3.3l0.2,0.2h3.3V0L0,0z"/>
					</g>
				</g>
			</g>
		</g>
		<g id="Group_188" transform="translate(19.442 50.77)">
			<g id="Group_182">
				<g id="Group_181">
					<g id="Group_180">
						<path id="Path_87" class="st1" d="M0,0L0,0L0,0L0,0z"/>
						<path id="Path_88" class="st1" d="M0,0L0,0L0,0z"/>
						<path id="Path_89" class="st1" d="M0,0C0,0,0,0,0,0z"/>
					</g>
				</g>
			</g>
			<g id="Group_187" transform="translate(0.12 5.001)">
				<g id="Group_184" transform="translate(49.312)">
					<g id="Group_183">
						<path id="Path_90" class="st1" d="M5.3,0H9c1,0,1.8,0.8,1.8,1.8c0,0,0,0,0,0v28.3c0,1-0.8,1.8-1.8,1.8c0,0,0,0,0,0H5.3
							c-2.9,0-5.3-2.4-5.3-5.3V5.3C0,2.4,2.4,0,5.3,0z"/>
					</g>
				</g>
				<g id="Group_186" transform="translate(0 2.831)">
					<g id="Group_185">
						<path id="Path_91" class="st1" d="M1.4,1.4c1.4-1.1,3.4-0.9,4.6,0.5l9.5,11.8c0.7,0.7,1.6,1.1,2.6,1.1h15.3
							c1,0,1.8-0.8,1.8-1.8c0-1-0.8-1.8-1.8-1.8H19.4c-1.9,0-3.5-1.6-3.5-3.6c0-1.9,1.6-3.4,3.5-3.5h9.2c0.9,0,1.3-0.6,2-1.2
							c1-0.9,2.2-1.6,3.5-2.2c3.9-1.6,8.3-1.1,11.7,1.3v23.2H19.4c-3.3,0-6.5-1.6-8.5-4.2L0.7,6.3C-0.5,4.8-0.1,2.5,1.4,1.4
							C1.4,1.4,1.4,1.4,1.4,1.4z"/>
					</g>
				</g>
			</g>
		</g>
	</g>
</g>
</svg>
