<?xml version="1.0" encoding="utf-8"?>
<!-- Generator: Adobe Illustrator 25.0.1, SVG Export Plug-In . SVG Version: 6.00 Build 0)  -->
<svg version="1.1" id="Layer_1" xmlns="http://www.w3.org/2000/svg" xmlns:xlink="http://www.w3.org/1999/xlink" x="0px" y="0px"
	 viewBox="0 0 307.9 153.1" style="enable-background:new 0 0 307.9 153.1;" xml:space="preserve">
<style type="text/css">
	.st0{fill:#FFFFFF;}
	.st1{fill:#03CE94;}
</style>
<g>
	<g>
		<g>
			<g>
				<g>
					<path class="st0" d="M2.7,117.3v-0.2c0-12.9,9.9-23.5,23.7-23.5c8.5,0,13.8,2.9,18,7.6l-7.8,8.4c-2.9-3-5.7-5-10.3-5
						c-6.4,0-11,5.6-11,12.3v0.2c0,6.9,4.5,12.5,11.5,12.5c4.3,0,7.2-1.9,10.4-4.8l7.5,7.6c-4.4,4.8-9.4,8.3-18.5,8.3
						C12.7,140.6,2.7,130.2,2.7,117.3z"/>
					<path class="st0" d="M50.4,126.6v-0.2c0-9.9,7.5-14.4,18.2-14.4c4.5,0,7.8,0.8,11,1.9v-0.8c0-5.3-3.3-8.3-9.7-8.3
						c-4.9,0-8.3,0.9-12.5,2.4l-3.2-9.8c5-2.2,9.9-3.6,17.5-3.6c7,0,12,1.9,15.2,5.1c3.4,3.4,4.9,8.3,4.9,14.4v26.2H79.4v-4.9
						c-3.1,3.5-7.4,5.7-13.6,5.7C57.3,140.4,50.4,135.6,50.4,126.6z M79.8,123.7v-2.3c-2.2-1-5.1-1.7-8.2-1.7
						c-5.5,0-8.8,2.2-8.8,6.2v0.2c0,3.5,2.9,5.5,7,5.5C75.7,131.6,79.8,128.3,79.8,123.7z"/>
					<path class="st0" d="M102.9,94.4h12.8v6.5c3.1-4.2,7.4-7.3,14.1-7.3c10.5,0,20.6,8.3,20.6,23.3v0.2c0,15.1-9.9,23.3-20.6,23.3
						c-6.8,0-11-3.1-14.1-6.7v19.4h-12.8V94.4z M137.6,117.1v-0.2c0-7.5-5.1-12.5-11-12.5c-6,0-11,5-11,12.5v0.2
						c0,7.5,5,12.5,11,12.5C132.5,129.6,137.6,124.7,137.6,117.1z"/>
					<path class="st0" d="M187.3,126.8v-21.4H182v-11h5.4V82.9h12.8v11.5h10.6v11h-10.6v19.3c0,2.9,1.3,4.4,4.1,4.4
						c2.4,0,4.5-0.6,6.3-1.6v10.3c-2.7,1.6-5.8,2.6-10.1,2.6C192.7,140.4,187.3,137.2,187.3,126.8z"/>
					<path class="st0" d="M217.5,126.6v-0.2c0-9.9,7.5-14.4,18.2-14.4c4.5,0,7.8,0.8,11,1.9v-0.8c0-5.3-3.3-8.3-9.7-8.3
						c-4.9,0-8.3,0.9-12.5,2.4l-3.2-9.8c5-2.2,9.9-3.6,17.5-3.6c7,0,12,1.9,15.2,5.1c3.4,3.4,4.9,8.3,4.9,14.4v26.2h-12.4v-4.9
						c-3.1,3.5-7.4,5.7-13.6,5.7C224.5,140.4,217.5,135.6,217.5,126.6z M246.9,123.7v-2.3c-2.2-1-5.1-1.7-8.2-1.7
						c-5.5,0-8.8,2.2-8.8,6.2v0.2c0,3.5,2.9,5.5,7,5.5C242.9,131.6,246.9,128.3,246.9,123.7z"/>
					<path class="st0" d="M270.7,78.1h12.8v61.5h-12.8V78.1z"/>
				</g>
				<g>
					<g>
						<path class="st0" d="M0,16.4h12.8v6.4c2.9-3.8,6.8-7.2,13.3-7.2c5.9,0,10.4,2.6,12.7,7.2c4-4.6,8.7-7.2,14.8-7.2
							c9.5,0,15.2,5.7,15.2,16.6v29.4H56V36.4c0-6.1-2.7-9.2-7.5-9.2s-7.8,3.1-7.8,9.2v25.2H28V36.4c0-6.1-2.7-9.2-7.5-9.2
							s-7.8,3.1-7.8,9.2v25.2H0V16.4z"/>
						<path class="st0" d="M79.7,45.6V16.4h12.8v25.2c0,6.1,2.9,9.2,7.8,9.2s8-3.1,8-9.2V16.4H121v45.2h-12.8v-6.4
							c-2.9,3.8-6.7,7.2-13.2,7.2C85.3,62.4,79.7,56,79.7,45.6z"/>
						<path class="st0" d="M134.6,48.7V27.3h-5.4v-11h5.4V4.8h12.8v11.5H158v11h-10.6v19.3c0,2.9,1.3,4.4,4.1,4.4
							c2.4,0,4.5-0.6,6.3-1.6v10.3c-2.7,1.6-5.8,2.6-10.1,2.6C139.9,62.3,134.6,59.2,134.6,48.7z"/>
						<path class="st0" d="M167.1,45.6V16.4h12.8v25.2c0,6.1,2.9,9.2,7.8,9.2s8-3.1,8-9.2V16.4h12.8v45.2h-12.8v-6.4
							c-2.9,3.8-6.7,7.2-13.2,7.2C172.8,62.4,167.1,56,167.1,45.6z"/>
						<path class="st0" d="M217.3,48.6v-0.2c0-9.9,7.5-14.4,18.2-14.4c4.5,0,7.8,0.8,11,1.9v-0.8c0-5.3-3.3-8.3-9.7-8.3
							c-4.9,0-8.3,0.9-12.5,2.4l-3.2-9.8c5-2.2,9.9-3.6,17.5-3.6c7,0,12,1.9,15.2,5.1c3.4,3.4,4.9,8.3,4.9,14.4v26.2h-12.4v-4.9
							c-3.1,3.5-7.4,5.7-13.6,5.7C224.2,62.4,217.3,57.5,217.3,48.6z M246.7,45.6v-2.3c-2.2-1-5.1-1.7-8.2-1.7
							c-5.5,0-8.8,2.2-8.8,6.2V48c0,3.5,2.9,5.5,7,5.5C242.6,53.5,246.7,50.3,246.7,45.6z"/>
						<path class="st0" d="M270.4,0h12.8v61.5h-12.8V0z"/>
					</g>
				</g>
			</g>
			<path class="st1" d="M158,75.4c5.1,5,10.2,10,15.3,14.9v-0.1c0-4.9,0-9.8,0-14.7c0-0.1,0-0.1-0.1-0.1
				C168.2,75.4,163.2,75.4,158,75.4C158.1,75.4,158.1,75.4,158,75.4z"/>
			<rect x="160.4" y="94.4" class="st1" width="12.8" height="45.2"/>
		</g>
		<g>
			<path class="st0" d="M295.3,80.1h-2.4v-1h5.8v1h-2.4v6.4h-1.1v-6.4H295.3z M300.4,79.1h1.1l2.7,4.1l2.6-4.1h1.1v7.4h-1v-5.7
				l-2.7,4h-0.1l-2.6-4v5.7h-1.1V79.1z"/>
		</g>
	</g>
</g>
</svg>
