<?xml version="1.0" standalone="no"?>
<!DOCTYPE svg PUBLIC "-//W3C//DTD SVG 20010904//EN"
 "http://www.w3.org/TR/2001/REC-SVG-20010904/DTD/svg10.dtd">
<svg version="1.0" xmlns="http://www.w3.org/2000/svg"
 width="128.000000pt" height="64.000000pt" viewBox="0 0 128.000000 64.000000"
 preserveAspectRatio="xMidYMid meet">

<g transform="translate(0.000000,64.000000) scale(0.100000,-0.100000)"
fill="#000000" stroke="none">
<path d="M1120 515 l0 -125 30 0 30 0 0 125 0 125 -30 0 -30 0 0 -125z"/>
<path d="M560 595 c0 -14 -4 -25 -10 -25 -5 0 -10 -9 -10 -20 0 -11 5 -20 10
-20 6 0 10 -26 10 -59 0 -68 17 -94 59 -89 34 4 45 48 12 48 -18 0 -21 6 -21
50 0 47 2 50 25 50 18 0 25 5 25 20 0 15 -7 20 -25 20 -20 0 -25 5 -25 25 0
20 -5 25 -25 25 -20 0 -25 -5 -25 -25z"/>
<path d="M0 480 c0 -89 0 -90 25 -90 24 0 25 3 25 59 0 66 18 93 48 74 12 -7
18 -27 20 -72 3 -57 4 -61 27 -61 24 0 25 3 25 59 0 62 14 86 44 75 12 -5 16
-20 16 -70 0 -62 1 -64 25 -64 25 0 25 1 25 78 0 47 -5 83 -12 90 -15 15 -63
16 -90 1 -14 -8 -23 -8 -31 0 -14 14 -52 14 -78 1 -13 -7 -19 -7 -19 0 0 5
-11 10 -25 10 -25 0 -25 -1 -25 -90z"/>
<path d="M332 489 c3 -66 7 -83 23 -95 25 -19 54 -18 77 3 11 9 18 11 18 5 0
-7 11 -12 25 -12 25 0 25 1 25 90 0 89 0 90 -25 90 -24 0 -25 -2 -25 -65 0
-52 -4 -67 -16 -72 -33 -12 -49 11 -52 76 -3 58 -4 61 -29 61 l-25 0 4 -81z"/>
<path d="M700 490 c0 -74 2 -81 25 -96 17 -11 33 -14 52 -9 16 4 43 7 61 6
l32 -3 0 91 0 91 -30 0 c-29 0 -29 0 -32 -67 -3 -65 -4 -68 -28 -68 -24 0 -25
3 -28 68 -3 64 -4 67 -27 67 -24 0 -25 -2 -25 -80z"/>
<path d="M932 562 c-26 -17 -3 -39 41 -38 30 1 42 -3 45 -15 2 -12 -5 -14 -32
-11 -45 5 -91 -35 -81 -71 10 -33 36 -49 70 -42 17 3 45 5 63 5 l32 -1 0 74
c0 59 -4 77 -18 90 -20 18 -97 23 -120 9z m87 -101 c21 -13 -3 -41 -35 -41
-29 0 -40 16 -24 35 14 17 38 19 59 6z"/>
<path d="M1130 185 l0 -125 25 0 25 0 0 125 0 125 -25 0 -25 0 0 -125z"/>
<path d="M1256 298 c3 -5 10 -6 15 -3 13 9 11 12 -6 12 -8 0 -12 -4 -9 -9z"/>
<path d="M780 270 c0 -11 -4 -20 -10 -20 -5 0 -10 -11 -10 -25 0 -14 5 -25 10
-25 6 0 10 -26 10 -58 0 -67 11 -82 57 -82 28 0 33 4 33 24 0 17 -5 23 -17 22
-15 -1 -19 8 -21 47 -3 42 -1 47 17 47 16 0 21 6 21 25 0 18 -5 25 -20 25 -13
0 -20 7 -20 20 0 15 -7 20 -25 20 -18 0 -25 -5 -25 -20z"/>
<path d="M59 235 c-55 -30 -62 -116 -12 -155 30 -23 90 -27 118 -6 16 12 17
16 6 30 -10 11 -18 13 -31 6 -30 -16 -48 -12 -66 15 -29 44 12 99 57 75 15 -9
24 -8 35 1 20 16 18 24 -11 37 -34 16 -64 15 -96 -3z"/>
<path d="M247 243 c-31 -8 -16 -38 20 -39 71 -2 89 -34 20 -34 -67 0 -102 -54
-61 -94 18 -19 75 -21 92 -4 9 9 12 9 12 0 0 -7 11 -12 25 -12 24 0 25 2 25
74 0 69 -2 76 -26 95 -25 20 -65 25 -107 14z m83 -117 c0 -21 -27 -38 -50 -31
-20 6 -26 25 -13 38 12 13 63 7 63 -7z"/>
<path d="M430 125 l0 -125 25 0 c23 0 25 4 25 40 0 37 2 40 19 30 33 -17 71
-11 96 15 35 34 35 106 0 140 -28 29 -70 32 -97 8 -17 -15 -18 -15 -18 0 0 11
-8 17 -25 17 l-25 0 0 -125z m122 68 c24 -22 24 -69 -1 -83 -27 -14 -37 -13
-55 6 -21 20 -20 53 1 76 20 22 31 23 55 1z"/>
<path d="M938 244 c-39 -12 -12 -42 35 -41 24 1 42 -5 47 -13 8 -12 0 -16 -38
-20 -26 -3 -53 -9 -59 -13 -16 -10 -17 -69 -1 -85 15 -15 63 -16 89 -2 13 7
19 7 19 0 0 -5 9 -10 20 -10 18 0 20 7 20 73 0 45 -5 80 -13 91 -13 18 -84 30
-119 20z m87 -113 c6 -11 -21 -41 -39 -41 -18 0 -35 21 -29 36 6 16 59 19 68
5z"/>
</g>
</svg>
