<?xml version="1.0" encoding="UTF-8"?>
<svg xmlns="http://www.w3.org/2000/svg" xmlns:xlink="http://www.w3.org/1999/xlink" width="512" height="512" viewBox="0 0 512 512"><defs><linearGradient id="a" data-name="New Gradient Swatch 1" x1="35.818" y1="548.182" x2="549.847" y2="34.153" gradientUnits="userSpaceOnUse"><stop offset="0" stop-color="#003f8a"/><stop offset="0.518" stop-color="#00d7df"/><stop offset="1" stop-color="#006df0"/></linearGradient></defs><path d="M408,296.3V264a8,8,0,0,0-8-8H278.62A24.076,24.076,0,0,0,264,241.39V215.7a104,104,0,1,0-16,0v25.69A24.076,24.076,0,0,0,233.38,256H112a8,8,0,0,0-8,8v32.3a104,104,0,1,0,16,0V272H233.38a23.99,23.99,0,0,0,45.24,0H392v24.3a104,104,0,1,0,16,0ZM112,488a87.469,87.469,0,0,1-50.09-15.69C67.43,466.96,73.77,464,80,464h9.38a23.99,23.99,0,0,0,45.24,0H144c6.23,0,12.57,2.96,18.09,8.31A87.469,87.469,0,0,1,112,488ZM86.35,384.28c12.94,0,32.94-2.34,57.65-12.79V400a32,32,0,0,1-64,0V384.08C81.88,384.2,83.99,384.28,86.35,384.28ZM80,368.04V368a32.042,32.042,0,0,1,32-32c12.65,0,23.86,8.04,29.01,19.34-19.84,8.84-36.12,11.77-46.71,12.62A92.371,92.371,0,0,1,80,368.04Zm40,79.28V456a8,8,0,0,1-16,0v-8.68a47.4,47.4,0,0,0,16,0ZM200,400a87.738,87.738,0,0,1-25.6,61.99C165.65,453.01,154.92,448,144,448h-8v-6.46A48.012,48.012,0,0,0,160,400V368c0-.23-.01-.45-.03-.68a49.189,49.189,0,0,0-13.93-32.66A47.093,47.093,0,0,0,112,320a48.051,48.051,0,0,0-48,48v32a48.012,48.012,0,0,0,24,41.54V448H80c-10.92,0-21.65,5.01-30.4,13.99A87.982,87.982,0,1,1,200,400Zm92.11-207.75a95.9,95.9,0,0,0,4.99-8.79A135.249,135.249,0,0,0,307.84,152h26.53A88.594,88.594,0,0,1,292.11,192.25ZM217.58,136a183.068,183.068,0,0,1,0-48h76.84a183.068,183.068,0,0,1,0,48ZM344,112a87.608,87.608,0,0,1-3.33,24H310.55a199.346,199.346,0,0,0,0-48h30.12A87.608,87.608,0,0,1,344,112Zm-9.63-40H307.84A135.249,135.249,0,0,0,297.1,40.54a95.9,95.9,0,0,0-4.99-8.79A88.594,88.594,0,0,1,334.37,72ZM229.21,47.7C236.74,32.64,246.51,24,256,24s19.26,8.64,26.79,23.7A116.019,116.019,0,0,1,291.44,72H220.56A116.019,116.019,0,0,1,229.21,47.7Zm-9.32-15.95a95.9,95.9,0,0,0-4.99,8.79A135.249,135.249,0,0,0,204.16,72H177.63A88.594,88.594,0,0,1,219.89,31.75ZM168,112a87.608,87.608,0,0,1,3.33-24h30.12a199.346,199.346,0,0,0,0,48H171.33A87.608,87.608,0,0,1,168,112Zm9.63,40h26.53a135.249,135.249,0,0,0,10.74,31.46,95.9,95.9,0,0,0,4.99,8.79A88.594,88.594,0,0,1,177.63,152Zm51.58,24.3a116.019,116.019,0,0,1-8.65-24.3h70.88a116.019,116.019,0,0,1-8.65,24.3C275.26,191.36,265.49,200,256,200S236.74,191.36,229.21,176.3ZM256,272a8,8,0,1,1,8-8A8.011,8.011,0,0,1,256,272ZM400,488a87.469,87.469,0,0,1-50.09-15.69c5.52-5.35,11.86-8.31,18.09-8.31h9.38a23.99,23.99,0,0,0,45.24,0H432c6.23,0,12.57,2.96,18.09,8.31A87.469,87.469,0,0,1,400,488ZM374.35,384.28c12.94,0,32.94-2.34,57.65-12.79V400a32,32,0,0,1-64,0V384.08C369.88,384.2,371.99,384.28,374.35,384.28ZM368,368.04V368a32.042,32.042,0,0,1,32-32c12.65,0,23.86,8.04,29.01,19.34-19.84,8.84-36.12,11.77-46.71,12.62A92.371,92.371,0,0,1,368,368.04Zm40,79.28V456a8,8,0,0,1-16,0v-8.68a47.4,47.4,0,0,0,16,0Zm54.4,14.67C453.65,453.01,442.92,448,432,448h-8v-6.46A48.012,48.012,0,0,0,448,400V368c0-.23-.01-.45-.03-.68a49.189,49.189,0,0,0-13.93-32.66A47.093,47.093,0,0,0,400,320a48.051,48.051,0,0,0-48,48v32a48.012,48.012,0,0,0,24,41.54V448h-8c-10.92,0-21.65,5.01-30.4,13.99a88,88,0,1,1,124.8,0Z" fill="url(#a)"/></svg>
